<?xml version='1.0' encoding='UTF-8'?>
<svg xmlns:xlink="http://www.w3.org/1999/xlink" xmlns="http://www.w3.org/2000/svg" xmlns:svg="http://www.w3.org/2000/svg" viewBox="14.1503 61.7509 322.2122 322.2122" version="1.1" id="svg106"><defs id="defs103"><filter id="filter-remove-color" x="0" y="0" width="1" height="1"><feColorMatrix color-interpolation-filters="sRGB" values="0 0 0 0 1 0 0 0 0 1 0 0 0 0 1 0 0 0 1 0" id="feColorMatrix1"/></filter><clipPath id="clip-22"><path clip-rule="nonzero" d="M 16,0.390625 H 147 V 81 H 16 Z m 0,0" id="path47"/></clipPath><clipPath id="clip-23"><path clip-rule="nonzero" d="M 13,0.390625 H 147 V 84 H 13 Z m 0,0" id="path48"/></clipPath><clipPath id="clip-24"><path clip-rule="nonzero" d="M 0.695312,44 H 183 V 195 H 0.695312 Z m 0,0" id="path49"/></clipPath><clipPath id="clip-25"><path clip-rule="nonzero" d="M 0.695312,43 H 184.10547 V 195 H 0.695312 Z m 0,0" id="path50"/></clipPath><clipPath id="clip-26"><path clip-rule="nonzero" d="M 52,120 H 160 V 237.20312 H 52 Z m 0,0" id="path51"/></clipPath><clipPath id="clip-27"><rect x="0" y="0" width="185" height="238" id="rect51"/></clipPath><g id="source-159697" clip-path="url(#clip-27)"><path fill-rule="nonzero" fill="#ffffff" fill-opacity="1" d="m 141.33594,143.33203 c -8.5625,-15.74219 -32.8086,-27.09375 -61.386721,-27.09375 -28.578125,0 -52.828125,11.35156 -61.390625,27.09375 h -3.304688 v 15.15234 c 0,0 0.05078,0.0312 0.152344,0.0859 2.269531,20.6211 30.296875,36.92188 64.542969,36.92188 35.730471,0 64.695311,-17.74219 64.695311,-39.625 v -12.53516 z m 0,0" id="path52"/><path fill-rule="nonzero" fill="#000000" fill-opacity="1" d="m 17.066406,157.43359 0.03906,0.0234 0.101562,0.91406 c 2.179688,19.80078 29.738281,35.30469 62.742188,35.30469 34.671874,0 62.882814,-16.96094 62.882814,-37.80859 v -10.72266 h -2.57422 l -0.51172,-0.94531 c -8.50781,-15.64063 -32.53906,-26.14844 -59.796874,-26.14844 -27.257813,0 -51.289063,10.50781 -59.796875,26.14844 l -0.515625,0.94531 h -2.570313 z m 62.882813,39.8711 c -16.824219,0 -32.863281,-3.89453 -45.167969,-10.96875 -12.125,-6.96875 -19.566406,-16.39844 -21.058594,-26.63672 L 13.4375,141.51562 H 17.5 c 9.546875,-16.24609 34.441406,-27.08984 62.449219,-27.08984 28.007811,0 52.898441,10.84375 62.445311,27.08984 h 4.0625 v 14.35157 c 0,11.23828 -7.03516,21.73828 -19.8164,29.5625 -12.5,7.66015 -29.082036,11.875 -46.691411,11.875" id="path53"/><path fill-rule="nonzero" fill="#ffffff" fill-opacity="1" d="m 144.64453,143.33203 c 0,21.88281 -28.96484,39.625 -64.695311,39.625 -35.730469,0 -64.695313,-17.74219 -64.695313,-39.625 0,-21.88672 28.964844,-39.6289 64.695313,-39.6289 35.730471,0 64.695311,17.74218 64.695311,39.6289" id="path54"/><path fill-rule="nonzero" fill="#000000" fill-opacity="1" d="m 79.949219,105.51953 c -34.675781,0 -62.882813,16.96094 -62.882813,37.80859 0,20.85157 28.207032,37.81641 62.882813,37.81641 34.671871,0 62.878901,-16.96484 62.878901,-37.81641 0,-20.84765 -28.20703,-37.80859 -62.878901,-37.80859 m 0,79.25 c -17.613281,0 -34.195313,-4.21484 -46.695313,-11.87109 C 20.476562,165.07031 13.4375,154.57031 13.4375,143.32812 c 0,-11.23828 7.039062,-21.73828 19.816406,-29.5664 12.5,-7.65625 29.082032,-11.87109 46.695313,-11.87109 17.609375,0 34.191411,4.21484 46.691411,11.87109 12.78124,7.82812 19.8164,18.32812 19.8164,29.5664 0,11.24219 -7.03516,21.74219 -19.8164,29.57032 -12.5,7.65625 -29.082036,11.87109 -46.691411,11.87109" id="path55"/><path fill-rule="nonzero" fill="#000000" fill-opacity="1" d="m 24.089844,55.777344 v 85.800776 c 0,16.53907 25.007812,29.94532 55.859375,29.94532 30.847661,0 55.855471,-13.40625 55.855471,-29.94532 V 55.777344 Z m 0,0" id="path56"/><path fill-rule="nonzero" fill="#000000" fill-opacity="1" d="m 25.902344,57.59375 v 83.98437 c 0,15.51172 24.246094,28.13282 54.046875,28.13282 29.800781,0 54.042971,-12.6211 54.042971,-28.13282 V 57.59375 Z m 54.046875,115.74219 c -15.214844,0 -29.546875,-3.19141 -40.355469,-8.98438 C 28.425781,158.36328 22.277344,150.27734 22.277344,141.57812 V 53.964844 H 137.62109 v 87.613276 c 0,8.69922 -6.15234,16.78516 -17.32031,22.77344 -10.80859,5.79297 -25.140624,8.98438 -40.351561,8.98438" id="path57"/><path fill-rule="nonzero" fill="#ffffff" fill-opacity="1" d="m 140.89844,41.050781 c -8.92969,-15.335937 -32.84766,-26.3125 -60.949221,-26.3125 -28.023438,0 -51.878907,10.910157 -60.871094,26.175781 C 16.695312,41.480469 15.25,41.828125 15.25,41.828125 v 12.535156 c 0,21.886719 28.96875,39.625 64.699219,39.625 35.730471,0 64.695311,-17.738281 64.695311,-39.625 V 41.828125 c 0,0 -1.40625,-0.292969 -3.74609,-0.777344" id="path58"/><path fill-rule="nonzero" fill="#000000" fill-opacity="1" d="m 17.066406,43.257812 v 11.105469 c 0,20.851563 28.207032,37.8125 62.882813,37.8125 34.671871,0 62.882811,-16.960937 62.882811,-37.8125 V 43.304688 l -3.09375,-0.644532 -0.40625,-0.695312 C 130.48047,26.761719 106.61719,16.550781 79.949219,16.550781 c -26.566407,0 -50.398438,10.160157 -59.308594,25.28125 L 20.25,42.5 19.496094,42.675781 c -0.980469,0.234375 -1.804688,0.429688 -2.429688,0.582031 m 62.882813,52.546876 c -17.613281,0 -34.195313,-4.21875 -46.695313,-11.875 C 20.476562,76.101562 13.4375,65.601562 13.4375,54.363281 V 40.398438 l 1.390625,-0.332032 c 0,0 1.148437,-0.277344 3.089844,-0.742187 9.828125,-15.820313 34.609375,-26.402344 62.03125,-26.402344 27.511721,0 52.312501,10.625 62.093751,26.515625 l 4.41406,0.917969 v 14.007812 c 0,11.238281 -7.03516,21.738281 -19.8164,29.566407 -12.5,7.65625 -29.082036,11.875 -46.691411,11.875" id="path59"/><g clip-path="url(#clip-22)" id="g60"><path fill-rule="nonzero" fill="#ffffff" fill-opacity="1" d="m 146.15625,40.617188 c 0,21.882812 -28.96484,39.625 -64.695312,39.625 -35.730469,0 -64.695313,-17.742188 -64.695313,-39.625 0,-21.886719 28.964844,-39.625 64.695313,-39.625 35.730472,0 64.695312,17.738281 64.695312,39.625" id="path60"/></g><path fill-rule="nonzero" fill="#000000" fill-opacity="1" d="m 38.527344,59.9375 c -0.175782,0.1875 -0.269532,0.40625 -0.285156,0.652344 -0.01953,0.25 0.04687,0.476562 0.199218,0.691406 l 0.363282,0.496094 -0.132813,0.148437 -3.65625,-3.347656 0.136719,-0.148437 0.527344,0.320312 c 0.222656,0.132812 0.457031,0.179688 0.703124,0.140625 0.246094,-0.03906 0.453126,-0.152344 0.625,-0.339844 l 7.292969,-7.964843 c 0.21875,-0.238282 0.320313,-0.507813 0.304688,-0.8125 -0.01172,-0.304688 -0.136719,-0.566407 -0.375,-0.78125 l -0.949219,-0.871094 0.203125,-0.222656 3.84375,2.425781 z m 0,0" id="path61"/><path fill-rule="nonzero" fill="#000000" fill-opacity="1" d="m 66.59375,72.128906 c -0.05078,0.25 -0.01563,0.484375 0.09766,0.707032 0.113282,0.21875 0.292969,0.382812 0.53125,0.480468 l 0.570313,0.234375 -0.03906,0.199219 -4.863281,-0.945312 0.03906,-0.199219 0.617187,-0.0039 c 0.257813,-0.0039 0.484375,-0.08594 0.671875,-0.25 0.191406,-0.160156 0.308594,-0.367187 0.359375,-0.617187 l 2.0625,-10.597656 c 0.0625,-0.316407 0.0078,-0.601563 -0.164063,-0.851563 C 66.308594,60.03125 66.0625,59.875 65.75,59.8125 l -1.269531,-0.246094 0.05859,-0.296875 4.546876,0.06641 z m 0,0" id="path62"/><path fill-rule="nonzero" fill="#000000" fill-opacity="1" d="m 95.90625,72.199219 c 0.04297,0.253906 0.152344,0.464843 0.335938,0.632812 0.183593,0.167969 0.40625,0.257813 0.664062,0.273438 l 0.617188,0.02344 0.03125,0.199219 -4.894532,0.773437 -0.03125,-0.199218 0.578125,-0.214844 c 0.242188,-0.08984 0.425781,-0.246094 0.546875,-0.464844 0.125,-0.214844 0.164063,-0.449218 0.125,-0.703125 L 92.195312,61.855469 C 92.144531,61.539062 91.996094,61.289062 91.75,61.109375 91.503906,60.933594 91.222656,60.867188 90.90625,60.917969 l -1.273438,0.199219 -0.04687,-0.296876 4.289062,-1.492187 z m 0,0" id="path63"/><path fill-rule="nonzero" fill="#000000" fill-opacity="1" d="m 123.80859,60.429688 c 0.15625,0.203124 0.35157,0.332031 0.59375,0.390624 0.24219,0.05859 0.48047,0.03125 0.71485,-0.08203 l 0.55078,-0.273437 0.125,0.160156 L 121.875,63.660156 121.75,63.5 l 0.40625,-0.464844 c 0.16797,-0.199218 0.25391,-0.425781 0.25781,-0.671875 0,-0.25 -0.0742,-0.472656 -0.23047,-0.675781 l -6.61328,-8.535156 c -0.19922,-0.257813 -0.44922,-0.402344 -0.75,-0.441406 -0.30078,-0.03516 -0.57812,0.04297 -0.83203,0.238281 l -1.01953,0.789062 -0.1875,-0.238281 3.04297,-3.375 z m 0,0" id="path64"/><path fill-rule="nonzero" fill="#000000" fill-opacity="1" d="M 40.226562,30.53125 C 39.125,30.375 38.167969,30.410156 37.347656,30.644531 c -0.820312,0.234375 -1.367187,0.695313 -1.636718,1.382813 -0.269532,0.6875 -0.175782,1.398437 0.277343,2.132812 0.457031,0.730469 1.140625,1.417969 2.054688,2.046875 0.910156,0.632813 1.90625,1.160157 2.980469,1.582031 1.101562,0.433594 2.199218,0.726563 3.300781,0.882813 1.097656,0.160156 2.058593,0.121094 2.878906,-0.113281 0.820313,-0.230469 1.363281,-0.691406 1.636719,-1.378906 0.269531,-0.6875 0.175781,-1.398438 -0.28125,-2.132813 C 48.105469,34.3125 47.421875,33.628906 46.507812,32.996094 45.59375,32.363281 44.601562,31.835938 43.527344,31.414062 42.425781,30.984375 41.328125,30.6875 40.226562,30.53125 m 7.316407,0.761719 c 0.871093,0.855469 1.453125,1.804687 1.75,2.847656 0.296875,1.050781 0.238281,2.097656 -0.171875,3.148437 -0.414063,1.050782 -1.089844,1.859376 -2.027344,2.429688 -0.9375,0.570312 -2.011719,0.867188 -3.230469,0.894531 -1.214843,0.02734 -2.441406,-0.199219 -3.679687,-0.6875 -1.25,-0.488281 -2.308594,-1.160156 -3.179688,-2.015625 -0.867187,-0.851562 -1.453125,-1.800781 -1.746094,-2.847656 -0.296874,-1.046875 -0.238281,-2.097656 0.171876,-3.144531 0.414062,-1.050781 1.085937,-1.863281 2.027343,-2.429688 0.933594,-0.570312 2.011719,-0.871093 3.226563,-0.898437 1.214844,-0.02734 2.445312,0.199218 3.679687,0.6875 1.25,0.488281 2.3125,1.164062 3.179688,2.015625" id="path65"/><path fill-rule="nonzero" fill="#000000" fill-opacity="1" d="m 66.773438,22.515625 c 0.07031,0.246094 0.210937,0.4375 0.414062,0.582031 0.203125,0.140625 0.433594,0.203125 0.691406,0.179688 l 0.617188,-0.05469 0.05469,0.191406 -4.75,1.410157 -0.05859,-0.191407 0.546874,-0.289062 c 0.230469,-0.121094 0.390626,-0.300781 0.484376,-0.53125 0.08984,-0.230469 0.101562,-0.46875 0.02734,-0.714844 l -3.070315,-10.35156 c -0.09375,-0.308594 -0.273438,-0.535156 -0.539063,-0.679688 -0.269531,-0.144531 -0.554687,-0.171875 -0.863281,-0.07813 l -1.238281,0.367188 -0.08594,-0.289063 4.058594,-2.046875 z m 0,0" id="path66"/><path fill-rule="nonzero" fill="#000000" fill-opacity="1" d="M 94.410156,13.410156 C 94.363281,12.300781 94.148438,11.363281 93.765625,10.601562 93.386719,9.835938 92.832031,9.386719 92.105469,9.246094 91.382812,9.109375 90.699219,9.332031 90.0625,9.914062 c -0.636719,0.582032 -1.183594,1.382813 -1.636719,2.394532 -0.453125,1.015625 -0.785156,2.089844 -1,3.222656 -0.222656,1.164062 -0.308593,2.296875 -0.261719,3.40625 0.05078,1.113281 0.261719,2.046875 0.644532,2.808594 0.378906,0.765625 0.933594,1.214844 1.660156,1.355468 0.722656,0.136719 1.40625,-0.08594 2.042969,-0.667968 0.636719,-0.582032 1.183593,-1.378906 1.636719,-2.394532 0.453124,-1.015624 0.789062,-2.089843 1.003906,-3.222656 0.222656,-1.160156 0.308594,-2.296875 0.257812,-3.40625 m 0.601563,7.332032 c -0.675781,1.011718 -1.503907,1.761718 -2.476563,2.246093 -0.972656,0.484375 -2.015625,0.621094 -3.125,0.410157 -1.105468,-0.210938 -2.027344,-0.726563 -2.761718,-1.542969 -0.730469,-0.816407 -1.222657,-1.820313 -1.476563,-3.007813 -0.25,-1.191406 -0.253906,-2.4375 -0.0039,-3.746094 0.25,-1.316406 0.714843,-2.484374 1.394531,-3.496093 0.675781,-1.011719 1.503906,-1.761719 2.476562,-2.246094 0.976563,-0.484375 2.015626,-0.621094 3.125,-0.40625 1.109376,0.210937 2.027344,0.722656 2.761719,1.539063 0.734375,0.816406 1.226563,1.820312 1.476563,3.007812 0.253906,1.191406 0.253906,2.4375 0.0039,3.746094 -0.25,1.316406 -0.714844,2.484375 -1.394531,3.496094" id="path67"/><path fill-rule="nonzero" fill="#000000" fill-opacity="1" d="m 120.97656,33.378906 c 0.83203,-0.734375 1.42578,-1.492187 1.77735,-2.265625 0.35547,-0.777343 0.35547,-1.492187 0.008,-2.140625 -0.35156,-0.652344 -0.95313,-1.042968 -1.80469,-1.171875 -0.85547,-0.128906 -1.8164,-0.04687 -2.89062,0.238281 -1.07422,0.285157 -2.1211,0.703126 -3.13672,1.246094 -1.04297,0.5625 -1.98047,1.207032 -2.8086,1.945313 -0.83593,0.734375 -1.42578,1.492187 -1.77734,2.269531 -0.35547,0.773438 -0.35547,1.488281 -0.008,2.140625 0.34765,0.648437 0.94922,1.039063 1.80469,1.167969 0.85546,0.128906 1.8164,0.05078 2.89062,-0.238282 1.07422,-0.285156 2.11719,-0.703124 3.13672,-1.246093 1.03906,-0.558594 1.97656,-1.207031 2.80859,-1.945313 m -5.3164,5.085938 c -1.21485,0.109375 -2.31641,-0.0625 -3.30469,-0.515625 -0.99219,-0.449219 -1.75391,-1.171875 -2.28516,-2.167969 -0.53515,-0.992188 -0.71484,-2.03125 -0.54297,-3.113281 0.17579,-1.085938 0.64454,-2.101563 1.41016,-3.042969 0.76563,-0.945312 1.73438,-1.730469 2.90625,-2.359375 1.18359,-0.636719 2.38281,-1.007813 3.59375,-1.121094 1.21484,-0.109375 2.31641,0.0625 3.30469,0.515625 0.99219,0.449219 1.75,1.175782 2.28515,2.167969 0.53516,0.992187 0.71485,2.03125 0.53907,3.117187 -0.17188,1.082032 -0.64063,2.097657 -1.40625,3.039063 -0.76563,0.945313 -1.73438,1.734375 -2.90625,2.363281 -1.1836,0.632813 -2.38282,1.003906 -3.59375,1.117188" id="path68"/><g clip-path="url(#clip-23)" id="g69"><path fill-rule="nonzero" fill="#000000" fill-opacity="1" d="m 79.949219,4.015625 c -34.675781,0 -62.882813,16.964844 -62.882813,37.8125 0,20.851563 28.207032,37.8125 62.882813,37.8125 34.671871,0 62.878901,-16.960937 62.878901,-37.8125 0,-20.847656 -28.20703,-37.8125 -62.878901,-37.8125 m 0,79.253906 c -17.613281,0 -34.195313,-4.21875 -46.695313,-11.875 C 20.476562,63.570312 13.4375,53.070312 13.4375,41.828125 c 0,-11.238281 7.039062,-21.738281 19.816406,-29.566406 12.5,-7.65625 29.082032,-11.871094 46.695313,-11.871094 17.609375,0 34.191411,4.214844 46.691411,11.871094 12.78124,7.828125 19.8164,18.328125 19.8164,29.566406 0,11.238281 -7.03516,21.742187 -19.8164,29.566406 -12.5,7.65625 -29.082036,11.875 -46.691411,11.875" id="path69"/></g><path fill-rule="nonzero" fill="#000000" fill-opacity="1" d="m 99.410156,41.832031 c 0,1.214844 -0.355468,2.390625 -1.007812,3.492188 -2.617188,4.429687 -10.015625,7.71875 -18.457032,7.71875 -8.445312,0 -15.839843,-3.289063 -18.457031,-7.71875 -0.65625,-1.101563 -1.007812,-2.277344 -1.007812,-3.492188 0,-0.414062 0.04297,-0.824219 0.125,-1.226562 1.09375,-5.53125 9.5,-9.996094 19.339843,-9.996094 9.828126,0 18.230469,4.457031 19.339844,9.980469 0.08203,0.410156 0.125,0.820312 0.125,1.242187 M 79.945312,26.984375 c -12.945312,0 -23.089843,6.519531 -23.089843,14.847656 0,1.207031 0.207031,2.375 0.621093,3.492188 0.609376,1.71875 1.6875,3.304687 3.128907,4.722656 4.085937,4.023437 11.15625,6.632813 19.339843,6.632813 8.183594,0 15.25,-2.601563 19.339844,-6.621094 1.449224,-1.421875 2.515624,-3.015625 3.136724,-4.734375 0.41406,-1.117188 0.62109,-2.285157 0.62109,-3.492188 0,-8.328125 -10.148439,-14.847656 -23.097658,-14.847656" id="path70"/><path fill-rule="nonzero" fill="#000000" fill-opacity="1" d="m 98.402344,45.324219 c -2.621094,4.429687 -10.015625,7.71875 -18.457032,7.71875 -8.445312,0 -15.839843,-3.289063 -18.457031,-7.71875 2.609375,-4.433594 10.003907,-7.730469 18.457031,-7.730469 8.453126,0 15.847657,3.296875 18.457032,7.730469" id="path71"/><path fill-rule="nonzero" fill="#000000" fill-opacity="1" d="M 13.726562,45.726562 C 15.050781,46.140625 26.410156,76.222656 63.207031,79.640625 100,83.058594 107.03906,77.378906 107.03906,77.378906 c 0,0 -16.296872,8.398438 -31.855466,8.148438 0,0 14.324218,2.480468 23.460937,0.0078 0,0 -3.335937,10.734375 -37.167969,5.675782 C 27.644531,86.144531 17.066406,64.066406 17.066406,64.066406 Z m 0,0" id="path72"/><path fill-rule="nonzero" fill="#000000" fill-opacity="1" d="m 16.714844,154.18359 c 0,0 9.878906,12.16016 17.105468,15.98828 7.222657,3.82813 29.015626,11.60547 35.066407,11.85547 6.046875,0.2461 29.003906,2.8125 45.613281,-3.23828 0,0 -19.75,11.25781 -51.664062,5.98047 0,0 29.386718,8.51563 54.328122,-3.625 0,0 -11.63672,13.30469 -48.124998,9.55469 0,0 20.1875,5.69531 40.499998,-1.47656 0,0 -4.22656,10.61328 -45.097654,4.45703 -40.871094,-6.16016 -47.167968,-27.64453 -48.15625,-31.96485 -0.988281,-4.32422 0.429688,-7.53125 0.429688,-7.53125" id="path73"/><path fill-rule="nonzero" fill="#ffffff" fill-opacity="1" d="m 132.92578,92.925781 c -5.24609,3.496094 -10.62109,6.09375 -16.05078,8.023439 -5.42969,1.91797 -10.92187,3.12891 -16.42187,3.55859 -5.488286,0.375 -11.003911,0.11328 -16.398442,-1.16015 -5.378907,-1.26953 -10.691407,-3.402348 -15.519532,-6.687504 5.21875,2.5 10.550782,4.093754 15.9375,5.019534 1.355469,0.19531 2.707032,0.37109 4.050782,0.53906 1.351562,0.14063 2.71875,0.19141 4.070312,0.25391 0.679688,0.0273 1.355469,0.0469 2.03125,0.0625 0.683594,-0.004 1.363281,-0.0117 2.042969,-0.0312 1.359375,-0.0469 2.710937,-0.0664 4.074221,-0.21485 1.35937,-0.11328 2.71484,-0.2539 4.07031,-0.42187 1.35938,-0.19922 2.71484,-0.42578 4.06641,-0.67969 2.70703,-0.50391 5.40625,-1.17578 8.09375,-1.964844 5.375,-1.59375 10.69531,-3.699218 15.95312,-6.296875" id="path74"/><path fill-rule="nonzero" fill="#ffffff" fill-opacity="1" d="m 133.46484,88.617188 c -4.125,2.757812 -8.3164,4.894531 -12.55078,6.597656 -4.23437,1.699218 -8.50781,2.929687 -12.79687,3.6875 -4.28125,0.707031 -8.589846,1.035156 -12.847659,0.699218 -4.25,-0.328124 -8.484375,-1.191406 -12.460937,-2.894531 4.273437,0.832031 8.527344,1.183594 12.789062,1.171875 1.070313,-0.02344 2.136719,-0.05859 3.195313,-0.08984 1.070312,-0.06641 2.136721,-0.148437 3.199221,-0.25 2.125,-0.183593 4.2539,-0.488281 6.375,-0.871093 1.0625,-0.183594 2.12109,-0.386719 3.17578,-0.605469 1.05859,-0.234375 2.11719,-0.503906 3.17187,-0.757812 2.10938,-0.539063 4.21094,-1.148438 6.30469,-1.824219 4.1875,-1.371094 8.33594,-3.011719 12.44531,-4.863281" id="path75"/><path fill-rule="nonzero" fill="#ffffff" fill-opacity="1" d="m 80.199219,106.14844 c -4.496094,1.1875 -9.074219,1.71094 -13.65625,1.74219 -2.289063,0.0312 -4.585938,-0.10938 -6.878907,-0.33594 -1.144531,-0.10156 -2.292968,-0.28125 -3.4375,-0.46485 -1.148437,-0.1875 -2.292968,-0.38281 -3.433593,-0.63671 -4.574219,-0.99219 -9.132813,-2.51954 -13.632813,-4.57813 -4.496094,-2.050781 -8.941406,-4.714844 -13.257812,-7.992188 4.394531,2.417969 8.804687,4.578126 13.269531,6.296878 2.226563,0.83594 4.46875,1.66015 6.71875,2.30859 1.125,0.33985 2.253906,0.66406 3.382813,0.96485 1.132812,0.28515 2.261718,0.55078 3.398437,0.79296 2.265625,0.51954 4.542969,0.91407 6.824219,1.22657 2.285156,0.3164 4.574218,0.55468 6.867187,0.71093 4.589844,0.29688 9.199219,0.26563 13.835938,-0.0352" id="path76"/><path fill-rule="nonzero" fill="#ffffff" fill-opacity="1" d="m 90.09375,107.60938 c -5.175781,2.14843 -10.527344,3.36328 -15.894531,3.91406 -5.367188,0.55078 -10.773438,0.39062 -16.15625,-0.46485 -1.34375,-0.20312 -2.691407,-0.48828 -4.035157,-0.78906 -1.339843,-0.3164 -2.679687,-0.60156 -4.015624,-1.01562 -2.675782,-0.82422 -5.339844,-1.69532 -7.984376,-2.875 -5.285156,-2.21485 -10.496093,-5.23828 -15.566406,-8.925785 5.140625,2.820315 10.332032,5.351565 15.582032,7.234375 5.25,1.93359 10.554687,3.32031 15.886718,4.17188 1.335938,0.21093 2.671875,0.39843 4.007813,0.55859 1.335937,0.14062 2.675781,0.24609 4.015625,0.33203 2.679687,0.16797 5.359375,0.17578 8.046875,0.082 5.371093,-0.21875 10.742187,-0.9375 16.113281,-2.22265" id="path77"/><path fill-rule="nonzero" fill="#ffffff" fill-opacity="1" d="m 127.83984,124.20703 c -5.58593,3.35547 -11.3125,5.65625 -17.07031,7.14844 -2.88281,0.74609 -5.76953,1.25781 -8.66797,1.57812 -1.44922,0.1875 -2.890622,0.25391 -4.335935,0.29688 -1.445313,0.0391 -2.898437,0.0859 -4.339844,-0.004 -5.78125,-0.20703 -11.503906,-1.39844 -17.097656,-3.39844 -1.382813,-0.53125 -2.769531,-1.09375 -4.15625,-1.6875 -1.378906,-0.60937 -2.714844,-1.35546 -4.066406,-2.07031 -0.667969,-0.37109 -1.339844,-0.74609 -2.007813,-1.1289 -0.667968,-0.38672 -1.3125,-0.83594 -1.960937,-1.26953 -1.296875,-0.875 -2.578125,-1.78516 -3.851563,-2.73047 1.375,0.75781 2.742188,1.49218 4.097656,2.21484 0.6875,0.34766 1.347657,0.73438 2.039063,1.04688 0.695313,0.3125 1.386719,0.62109 2.078125,0.91796 1.386719,0.58985 2.746094,1.22266 4.144531,1.70704 1.398438,0.49218 2.792969,0.95703 4.191407,1.39453 0.347656,0.10937 0.699218,0.21875 1.046874,0.32031 0.355469,0.0937 0.707032,0.17969 1.0625,0.26562 0.703126,0.17969 1.40625,0.35547 2.113282,0.51953 1.40625,0.32813 2.808594,0.65235 4.238281,0.84375 1.417969,0.22657 2.835937,0.42579 4.25,0.59375 1.425781,0.1211 2.851563,0.21094 4.277344,0.26563 1.414062,0.0977 2.847656,0.0625 4.273437,0.0391 0.714844,-0.0156 1.425782,-0.0391 2.136724,-0.0703 0.71484,-0.0469 1.42968,-0.10156 2.14062,-0.16406 2.84766,-0.20703 5.70313,-0.67188 8.53906,-1.21485 5.6875,-1.16406 11.33203,-2.95703 16.92578,-5.41406" id="path78"/><path fill-rule="nonzero" fill="#ffffff" fill-opacity="1" d="m 87.609375,131.71484 c -3.109375,1.36328 -6.328125,2.25 -9.570313,2.82422 -3.238281,0.58594 -6.515624,0.78516 -9.796874,0.71485 -3.285157,-0.0742 -6.582032,-0.52735 -9.859376,-1.31641 -3.277343,-0.75781 -6.539062,-1.96484 -9.734374,-3.57031 3.246093,0.71484 6.464843,1.42968 9.695312,1.86328 3.230469,0.46484 6.464844,0.73828 9.703125,0.83594 1.625,0.0859 3.242187,0.0547 4.867187,0.0234 0.8125,-0.0156 1.625,-0.043 2.4375,-0.082 0.8125,-0.0547 1.625,-0.0977 2.441407,-0.14844 3.257812,-0.24609 6.519531,-0.64843 9.816406,-1.14453" id="path79"/><path fill-rule="nonzero" fill="#ffffff" fill-opacity="1" d="m 97.160156,132.1875 c -3.695312,2.46094 -7.671875,4.16406 -11.6875,5.38281 -4.023437,1.21875 -8.128906,1.8711 -12.246094,2.06641 -4.125,0.10156 -8.261718,-0.15235 -12.375,-1.07422 -2.058593,-0.37891 -4.105468,-1.03516 -6.144531,-1.67969 -2.035156,-0.70703 -4.054687,-1.55859 -6.058593,-2.51562 2.03125,0.48437 4.058593,1.04687 6.085937,1.45312 1.011719,0.20703 2.027344,0.39844 3.042969,0.57422 1.011718,0.19141 2.027344,0.35156 3.042968,0.46875 1.011719,0.12109 2.027344,0.23438 3.042969,0.35547 1.011719,0.0781 2.027344,0.14453 3.042969,0.19141 2.03125,0.14453 4.058594,0.10156 6.085938,0.0508 2.027343,-0.082 4.054687,-0.23047 6.074218,-0.50391 1.015625,-0.10547 2.023438,-0.26172 3.03125,-0.44141 1.011719,-0.17968 2.019532,-0.35937 3.027344,-0.58593 4.027344,-0.88282 8.042969,-2.08203 12.035156,-3.74219" id="path80"/><path fill-rule="nonzero" fill="#ffffff" fill-opacity="1" d="m 105.82422,131.45703 c -0.89844,1.05859 -1.93359,1.98828 -2.99609,2.84375 -1.05469,0.875 -2.17188,1.625 -3.289068,2.37109 -1.136718,0.6875 -2.273437,1.39063 -3.445312,1.96485 -0.585938,0.29297 -1.167969,0.58203 -1.753906,0.86719 -0.589844,0.26562 -1.1875,0.50781 -1.78125,0.7539 -4.761719,1.9336 -9.660156,3.09375 -14.578125,3.49219 -1.230469,0.12891 -2.460938,0.16406 -3.695313,0.17578 -1.230468,0.0117 -2.460937,0 -3.691406,-0.0312 -1.234375,-0.0898 -2.464844,-0.20703 -3.695312,-0.34375 -1.226563,-0.14062 -2.457032,-0.28516 -3.683594,-0.53125 -2.449219,-0.48437 -4.894532,-1.05859 -7.324219,-1.80859 -2.429687,-0.8086 -4.847656,-1.69922 -7.242187,-2.77344 2.417968,0.59766 4.835937,1.20312 7.261718,1.71094 2.417969,0.47656 4.84375,0.86718 7.277344,1.16797 2.425781,0.25781 4.855469,0.42968 7.285156,0.50781 1.214844,0.0156 2.425782,0.004 3.640625,-0.0273 1.214844,-0.0234 2.429688,-0.0781 3.632813,-0.21093 1.210937,-0.10547 2.421875,-0.23047 3.628906,-0.375 1.203125,-0.19141 2.40625,-0.40625 3.609375,-0.64063 1.207031,-0.19922 2.394531,-0.52344 3.589844,-0.83203 0.597656,-0.16016 1.195312,-0.32422 1.789062,-0.49219 0.59375,-0.1875 1.1875,-0.3789 1.777344,-0.57422 0.59375,-0.20312 1.1875,-0.39453 1.777344,-0.61718 0.582031,-0.23047 1.167969,-0.46485 1.753906,-0.70703 1.183594,-0.44922 2.324219,-1.03516 3.484375,-1.59375 1.14453,-0.59375 2.29297,-1.21875 3.40625,-1.92969 1.11719,-0.70703 2.23047,-1.46094 3.26172,-2.36719" id="path81"/><path fill-rule="nonzero" fill="#ffffff" fill-opacity="1" d="m 104.20703,139.10937 c 2.50391,-0.47656 4.94141,-0.97656 7.36328,-1.54687 2.41797,-0.57813 4.82813,-1.23828 7.21875,-1.99219 2.39453,-0.75 4.77344,-1.58594 7.13672,-2.50781 2.36719,-0.91016 4.72656,-1.96484 7.10547,-2.94531 -2.33594,1.86328 -4.73047,3.41406 -7.14453,4.66015 -2.41797,1.28907 -4.85156,2.27344 -7.28906,3.03907 -2.4375,0.76171 -4.8711,1.26562 -7.28516,1.5 -2.41016,0.24218 -4.8125,0.24609 -7.10547,-0.20704" id="path82"/><path fill-rule="nonzero" fill="#ffffff" fill-opacity="1" d="m 133.03125,134.42187 c -2.77344,2.19922 -5.62891,3.91797 -8.50391,5.32813 -1.4414,0.71875 -2.88281,1.3125 -4.33593,1.85547 -1.44922,0.54687 -2.89844,0.94922 -4.35547,1.34375 -2.90625,0.72265 -5.80469,1.03125 -8.64453,0.98437 -2.83594,-0.0859 -5.60157,-0.625 -8.113285,-1.71484 2.886715,0.18359 5.691405,0.19922 8.527345,-0.0508 2.83594,-0.28906 5.66797,-0.77735 8.49609,-1.47656 1.41797,-0.34766 2.82813,-0.73438 4.2461,-1.19922 1.41015,-0.41407 2.82422,-0.95703 4.23437,-1.46094 2.83985,-1.07813 5.65625,-2.28125 8.44922,-3.60938" id="path83"/><path fill-rule="nonzero" fill="#ffffff" fill-opacity="1" d="m 133.03125,138.14453 c -3.30078,2.46484 -6.6875,4.36719 -10.09766,5.90625 -1.70703,0.79297 -3.42187,1.40234 -5.14062,1.99219 -1.71875,0.53906 -3.44531,0.99219 -5.16797,1.33203 -3.4375,0.62109 -6.90234,0.92187 -10.23437,0.46875 -3.316411,-0.41797 -6.593755,-1.41797 -9.253911,-3.37109 3.167969,1.12109 6.441406,1.55468 9.750001,1.63281 0.83203,0 1.66406,-0.008 2.49219,-0.0273 0.83984,-0.0547 1.67968,-0.12109 2.51562,-0.19921 0.82813,-0.0547 1.67969,-0.20313 2.51563,-0.31641 0.83593,-0.11328 1.67578,-0.25391 2.51953,-0.44141 3.35937,-0.62109 6.73047,-1.625 10.08203,-2.79687 3.37109,-1.21875 6.71094,-2.61328 10.01953,-4.17969" id="path84"/><path fill-rule="nonzero" fill="#ffffff" fill-opacity="1" d="m 133.03125,142.21484 c -3.91016,2.84375 -7.92969,4.98438 -11.97656,6.61328 -4.05469,1.63282 -8.14453,2.69532 -12.21875,3.1836 -2.03125,0.20703 -4.06641,0.32031 -6.07813,0.22656 -2,-0.125 -4.00781,-0.32031 -5.941404,-0.80469 -3.878906,-0.88281 -7.617187,-2.57422 -10.6875,-5.17968 3.613282,1.82812 7.394532,2.94921 11.277344,3.48046 1.941406,0.26172 3.90234,0.39454 5.875,0.38282 1.96875,0.0195 3.95703,-0.11719 5.94531,-0.36328 1.98047,-0.20704 3.97657,-0.58204 5.96875,-1.03125 1.98828,-0.42579 3.98047,-1.00782 5.96485,-1.625 3.97656,-1.29297 7.92968,-2.92579 11.87109,-4.88282" id="path85"/><path fill-rule="nonzero" fill="#ffffff" fill-opacity="1" d="m 81.460938,146.96875 c 0.78125,0.83594 1.714843,1.49219 2.632812,2.12109 0.484375,0.28907 0.9375,0.60547 1.421875,0.875 0.492187,0.25782 0.984375,0.51563 1.476563,0.76563 2,0.9414 4.0625,1.6875 6.195312,2.1914 2.117188,0.52344 4.285156,0.84766 6.472656,1.00391 1.101564,0.043 2.195314,0.10156 3.289064,0.125 1.10547,-0.0156 2.22266,-0.0977 3.32812,-0.17187 0.55469,-0.0312 1.10547,-0.0703 1.66016,-0.11329 0.55859,-0.0742 1.11719,-0.15234 1.67188,-0.23828 1.11718,-0.16406 2.23046,-0.35156 3.33984,-0.55468 2.23437,-0.47657 4.46875,-1.07813 6.6875,-1.73047 1.11719,-0.375 2.23047,-0.76563 3.33984,-1.17188 1.10938,-0.41015 2.21875,-0.78906 3.32813,-1.27734 2.21484,-0.95313 4.42187,-1.98828 6.62109,-3.00781 -2.1875,1.49609 -4.40234,2.82421 -6.63281,4.08203 -2.23438,1.18359 -4.48828,2.17968 -6.75781,3.10937 -1.13282,0.45703 -2.26953,0.80469 -3.40625,1.15625 -1.13672,0.34375 -2.28125,0.69531 -3.42578,0.96875 -1.13672,0.23047 -2.27735,0.4375 -3.42188,0.62891 -0.57422,0.0937 -1.14453,0.17969 -1.71875,0.26172 -0.56641,0.0508 -1.13672,0.0937 -1.70703,0.13281 -4.55859,0.36328 -9.082032,-0.14453 -13.351564,-1.55859 -2.144531,-0.67969 -4.175781,-1.69922 -6.101562,-2.90235 -0.464844,-0.32812 -0.929688,-0.66015 -1.390625,-0.99609 -0.457031,-0.34375 -0.882813,-0.72656 -1.3125,-1.10156 -0.832031,-0.78516 -1.640625,-1.61719 -2.238281,-2.59766" id="path86"/><path fill-rule="nonzero" fill="#ffffff" fill-opacity="1" d="m 90.09375,152.82812 c -5.226562,1.97266 -10.582031,3.09766 -15.953125,3.57032 -2.6875,0.24609 -5.382813,0.28906 -8.078125,0.1914 -1.347656,-0.0312 -2.699219,-0.16015 -4.046875,-0.30078 -1.347656,-0.14844 -2.691406,-0.30078 -4.039063,-0.53906 -5.382812,-0.89844 -10.75,-2.55078 -16.035156,-4.89844 -5.285156,-2.34765 -10.488281,-5.53515 -15.5,-9.49219 5.132813,3.125 10.304688,5.80079 15.550782,7.8125 0.65625,0.26954 1.3125,0.50782 1.96875,0.72657 0.65625,0.23437 1.316406,0.46093 1.972656,0.67968 1.316406,0.44141 2.640625,0.86719 3.960937,1.19922 1.324219,0.36328 2.652344,0.70313 3.980469,1.01172 1.328125,0.28125 2.660156,0.53516 3.992188,0.76172 1.332031,0.26172 2.667968,0.42578 4.003906,0.59375 1.339844,0.16406 2.675781,0.28516 4.015625,0.375 2.683593,0.21484 5.363281,0.22656 8.054687,0.1875 5.378906,-0.14453 10.761719,-0.77734 16.152344,-1.87891" id="path87"/><path fill-rule="nonzero" fill="#ffffff" fill-opacity="1" d="m 94.601562,154.22656 c -5.457031,2.91797 -11.214843,4.66016 -17,5.5625 -5.792968,0.90235 -11.65625,0.91016 -17.496093,0.0391 -5.839844,-0.9414 -11.65625,-2.57421 -17.367188,-5.25 -2.859375,-1.24218 -5.679687,-2.86328 -8.480469,-4.53906 -1.398437,-0.83203 -2.777343,-1.80469 -4.15625,-2.77734 -1.375,-0.97656 -2.742187,-1.9961 -4.09375,-3.0586 1.386719,0.85157 2.773438,1.67969 4.164063,2.4961 1.394531,0.80078 2.78125,1.64453 4.1875,2.32422 2.804687,1.42187 5.621094,2.80468 8.460937,3.88672 1.417969,0.5625 2.839844,1.09375 4.265626,1.59375 1.425781,0.46093 2.855468,0.89062 4.289062,1.28906 1.433594,0.42187 2.867188,0.75781 4.304688,1.05469 1.4375,0.29296 2.878906,0.60546 4.320312,0.78515 1.441406,0.21094 2.886719,0.39063 4.332031,0.53906 1.441407,0.10938 2.886719,0.1875 4.335938,0.23438 1.449219,0.0781 2.890625,0.0312 4.339843,-0.0117 1.445313,-0.0391 2.890626,-0.14453 4.335938,-0.28125 5.777344,-0.57031 11.550781,-1.80078 17.257812,-3.88672" id="path88"/><path fill-rule="nonzero" fill="#ffffff" fill-opacity="1" d="m 100.05859,155.04297 c -5.566402,3.72265 -11.535152,6.21484 -17.574215,7.74609 -6.046875,1.51953 -12.210937,2.07031 -18.375,1.53516 -1.539063,-0.0898 -3.085937,-0.34766 -4.625,-0.59375 -1.539063,-0.27735 -3.074219,-0.5 -4.605469,-0.9375 -1.535156,-0.41016 -3.066406,-0.85547 -4.59375,-1.33985 -1.523437,-0.46875 -3.042968,-1.12109 -4.554687,-1.74609 -1.507813,-0.65625 -3.019531,-1.25391 -4.511719,-2.08203 -1.492188,-0.79297 -2.980469,-1.62109 -4.460938,-2.48438 -1.480468,-0.84765 -2.9375,-1.86328 -4.386718,-2.8789 -1.449219,-1.01953 -2.890625,-2.08985 -4.316406,-3.19922 1.464843,0.90625 2.929687,1.78516 4.398437,2.64453 1.46875,0.84375 2.933594,1.73047 4.421875,2.42188 2.964844,1.46875 5.933594,2.86718 8.9375,3.91015 0.75,0.27344 1.5,0.53906 2.25,0.79297 0.75,0.25781 1.503906,0.52734 2.257812,0.72656 1.503907,0.42188 3.015626,0.8125 4.527344,1.16797 1.511719,0.38672 3.027344,0.60938 4.542969,0.85938 1.515625,0.23047 3.039063,0.46484 4.550781,0.54297 1.519532,0.12109 3.039063,0.20703 4.5625,0.25781 1.515625,-0.004 3.035156,-0.043 4.554688,-0.11328 3.035156,-0.16407 6.066406,-0.55078 9.085937,-1.13672 6.039063,-1.1836 12.039063,-3.15625 17.914059,-6.09375" id="path89"/><path fill-rule="nonzero" fill="#ffffff" fill-opacity="1" d="m 105.82422,155.05078 c -2.3125,2.05469 -4.82422,3.75 -7.363282,5.26563 -2.546876,1.5039 -5.167969,2.76171 -7.820313,3.8125 -1.320313,0.5664 -2.667969,0.98046 -4.011719,1.41406 -1.335937,0.44531 -2.699218,0.76172 -4.050781,1.08984 -0.679687,0.15625 -1.359375,0.30469 -2.039063,0.44531 -0.683593,0.11329 -1.367187,0.21875 -2.050781,0.32032 -1.367187,0.18359 -2.730469,0.39453 -4.105469,0.47656 -5.496093,0.36719 -11.015624,-0.0312 -16.496093,-1.28125 -2.738281,-0.56641 -5.464844,-1.50391 -8.171875,-2.44141 -2.703125,-1.05468 -5.386719,-2.28906 -8.042969,-3.67968 2.6875,0.92187 5.371094,1.86718 8.066406,2.61718 1.347657,0.35938 2.699219,0.69141 4.050781,0.99219 1.347657,0.30469 2.703126,0.62109 4.054688,0.80469 1.355469,0.20312 2.707031,0.39062 4.066406,0.5664 1.355469,0.19922 2.707032,0.23047 4.0625,0.3086 1.355469,0.0469 2.71875,0.16015 4.066406,0.10937 1.355469,-0.0273 2.707032,-0.0859 4.058594,-0.16797 1.359375,-0.0586 2.703125,-0.25 4.054688,-0.41015 0.671875,-0.0859 1.347656,-0.17969 2.023437,-0.28125 0.667969,-0.1211 1.339844,-0.25 2.011719,-0.38672 2.695312,-0.48828 5.355469,-1.24219 8.019531,-2.08594 1.324219,-0.45312 2.65625,-0.89844 3.96875,-1.44531 0.65625,-0.26563 1.316407,-0.53516 1.972657,-0.8125 0.65625,-0.28125 1.304687,-0.60156 1.957031,-0.90234 2.613281,-1.23047 5.195311,-2.64844 7.718751,-4.32813" id="path90"/><g clip-path="url(#clip-24)" id="g91"><path fill-rule="nonzero" fill="#ffffff" fill-opacity="1" d="m 181.11719,46.40625 c 2.54297,2.789062 1.78906,6.355469 -1.19922,8.65625 L 22.203125,179.14062 0.777344,194.16016 20.597656,176.02344 172.33594,46.5625 c 2.64062,-2.285156 6.42578,-2.734375 8.78125,-0.15625" id="path91"/></g><g clip-path="url(#clip-25)" id="g92"><path fill-rule="nonzero" fill="#000000" fill-opacity="1" d="m 177.125,46.105469 c -1.34766,0 -2.75,0.613281 -3.83984,1.554687 L 21.539062,177.125 18.230469,180.15625 21.339844,177.97656 179.01953,53.921875 c 1.29297,-0.996094 2.0625,-2.234375 2.17188,-3.492187 0.0937,-1.070313 -0.30469,-2.121094 -1.14454,-3.042969 -0.82421,-0.902344 -1.85546,-1.28125 -2.92187,-1.28125 M 0.695312,194.20703 21.039062,173.50781 171.39453,45.457031 c 3.44141,-2.976562 8.08594,-2.992187 10.79297,-0.02734 1.40625,1.539062 2.05859,3.355468 1.89453,5.25 -0.17969,2.078124 -1.34375,4.042968 -3.27734,5.53125 L 26.003906,178.48437 Z m 0,0" id="path92"/></g><path fill-rule="nonzero" fill="#000000" fill-opacity="1" d="m 169.66406,59.542969 c -4.19922,3.304687 -8.3164,5.082031 -9.19531,3.964843 -0.88281,-1.121093 1.80859,-4.707031 6.00781,-8.015624 4.19922,-3.304688 8.31641,-5.082032 9.19922,-3.964844 0.87891,1.117187 -1.8125,4.707031 -6.01172,8.015625" id="path93"/><path fill-rule="nonzero" fill="#ffffff" fill-opacity="1" d="m 111.96484,105.30078 c -6.73437,4.85938 -13.843746,8.31641 -21.042965,10.62891 -7.207031,2.3125 -14.539063,3.45312 -21.878906,3.33203 -1.832031,0.008 -3.671875,-0.14453 -5.503907,-0.32031 -0.917968,-0.0898 -1.832031,-0.19141 -2.75,-0.30469 -0.914062,-0.10547 -1.828124,-0.24219 -2.742187,-0.43359 -1.832031,-0.35547 -3.65625,-0.76172 -5.476563,-1.21875 -1.816406,-0.4375 -3.632812,-1.07813 -5.441406,-1.69922 -0.90625,-0.32032 -1.804687,-0.65235 -2.707031,-0.9961 -0.449219,-0.16797 -0.898437,-0.34375 -1.347656,-0.52343 -0.449219,-0.19532 -0.898438,-0.39844 -1.34375,-0.60157 -1.792969,-0.82031 -3.574219,-1.6875 -5.347657,-2.60547 -1.773437,-0.90234 -3.53125,-1.97656 -5.277343,-3.07812 -1.746094,-1.10547 -3.480469,-2.27344 -5.203125,-3.5 1.742187,1.00781 3.492187,1.97656 5.242187,2.91797 1.753907,0.92578 3.511719,1.87109 5.285157,2.61328 3.539062,1.58594 7.105468,3.01953 10.695312,4.07422 7.175781,2.24609 14.4375,3.36328 21.710938,3.48828 1.816406,0.0234 3.636718,-0.004 5.457031,-0.082 1.816406,-0.1211 3.632812,-0.29297 5.449219,-0.51953 3.628906,-0.45703 7.253906,-1.19141 10.859374,-2.16797 7.214844,-1.97266 14.367188,-4.92188 21.363278,-9.00391" id="path94"/><path fill-rule="nonzero" fill="#ffffff" fill-opacity="1" d="m 119.82031,102.75781 c -0.80468,0.90235 -1.66797,1.73438 -2.52734,2.5586 -0.88672,0.77343 -1.75781,1.58593 -2.67188,2.30468 -1.80078,1.48829 -3.66796,2.79297 -5.53906,4.07032 -3.78125,2.41797 -7.64453,4.51172 -11.589842,6.08984 -7.875,3.22656 -15.953126,4.91016 -24.039063,5.07422 -1.011719,0.0234 -2.019531,0.0352 -3.03125,0.0312 -1.011719,-0.0234 -2.023437,-0.0898 -3.03125,-0.15625 -2.023437,-0.14453 -4.039063,-0.35156 -6.054687,-0.61719 -2.011719,-0.28515 -4.023438,-0.73828 -6.027344,-1.19531 -2.007813,-0.46875 -4.003906,-0.99219 -5.996094,-1.63281 -3.984375,-1.33594 -7.933594,-2.91797 -11.839844,-4.82422 -3.90625,-2 -7.765625,-4.23047 -11.570312,-6.78516 3.828125,2.08594 7.691406,4.02735 11.59375,5.73047 3.898437,1.62891 7.835937,3.02344 11.800781,4.17969 3.960937,1.03906 7.949219,1.92187 11.945313,2.45312 2,0.24219 4,0.42578 6.003906,0.55078 1.003906,0.0586 2.003906,0.1211 3.007812,0.13282 1,0 2,-0.0156 3,-0.0469 2.003906,-0.0547 4.011719,-0.13281 6.011719,-0.33984 2,-0.23438 3.996094,-0.53125 5.988281,-0.88281 3.984375,-0.75391 7.953125,-1.81641 11.878906,-3.26172 3.929688,-1.41016 7.804688,-3.25 11.624998,-5.41407 0.94532,-0.5664 1.89453,-1.14453 2.83985,-1.73437 0.94922,-0.58203 1.85937,-1.26172 2.80078,-1.89844 1.84765,-1.32812 3.6914,-2.73437 5.42187,-4.38672" id="path95"/><path fill-rule="nonzero" fill="#ffffff" fill-opacity="1" d="m 127.83984,109.22266 c -2.51562,1.85937 -5.09765,3.27343 -7.6875,4.4414 -2.58984,1.1836 -5.19921,2.07032 -7.8125,2.73828 -2.60937,0.63672 -5.22265,1.07422 -7.8125,1.19922 -2.59765,0.16016 -5.171871,0.0508 -7.695309,-0.40234 2.683594,-0.46875 5.304689,-0.84766 7.917969,-1.33594 2.60547,-0.48047 5.19922,-1.05859 7.76953,-1.6914 2.57422,-0.64844 5.13281,-1.39844 7.67969,-2.21485 2.55469,-0.83984 5.08594,-1.7539 7.64062,-2.73437" id="path96"/><path fill-rule="nonzero" fill="#ffffff" fill-opacity="1" d="m 127.83984,112.69922 c -3.27734,2.22266 -6.63281,3.89062 -10,5.20703 -1.6875,0.68359 -3.375,1.20703 -5.07421,1.70703 -1.69141,0.46485 -3.39063,0.83985 -5.08985,1.14844 -1.69531,0.28906 -3.39062,0.47656 -5.08594,0.60547 -1.6875,0.0703 -3.386715,0.16015 -5.062496,0.0391 -3.363282,-0.125 -6.6875,-0.69922 -9.917969,-1.67969 3.457031,0.0859 6.839844,0.16016 10.222656,-0.0469 3.378909,-0.17969 6.738279,-0.55078 10.089849,-1.14844 3.34375,-0.55469 6.68359,-1.37891 10,-2.34375 3.33203,-0.99219 6.64062,-2.15625 9.91796,-3.48828" id="path97"/><path fill-rule="nonzero" fill="#ffffff" fill-opacity="1" d="m 127.83984,116.41797 c -4.00781,2.53125 -8.08984,4.42578 -12.19921,5.87891 -1.03125,0.3789 -2.0625,0.69921 -3.09375,0.99609 -1.03125,0.30469 -2.06641,0.57422 -3.09766,0.81641 -2.07422,0.5 -4.14453,0.8164 -6.22266,1.10156 -2.07031,0.1914 -4.148435,0.35547 -6.214841,0.32422 -2.066407,-0.008 -4.125,-0.1836 -6.175781,-0.44922 -4.078126,-0.60547 -8.109376,-1.76563 -11.890626,-3.63672 4.101563,1.02344 8.171876,1.66797 12.261719,1.9375 2.058594,0.0508 4.085938,0.17578 6.148438,0.0547 2.042969,-0.0391 4.097661,-0.22266 6.140621,-0.45313 2.04688,-0.24609 4.08985,-0.55469 6.12891,-0.98047 2.03906,-0.36718 4.07813,-0.90625 6.10547,-1.4375 4.07422,-1.1289 8.11719,-2.51562 12.10937,-4.15234" id="path98"/><path fill-rule="nonzero" fill="#ffffff" fill-opacity="1" d="m 127.83984,120.13672 c -4.78906,2.95703 -9.67968,5.10937 -14.60546,6.66406 -4.92969,1.55469 -9.90625,2.46484 -14.878911,2.71875 -4.957031,0.1875 -9.929688,-0.19531 -14.78125,-1.4375 -4.835938,-1.25781 -9.59375,-3.28125 -13.894531,-6.28906 4.707031,2.22656 9.492187,3.71094 14.335937,4.62891 1.21875,0.1914 2.4375,0.36718 3.648437,0.53906 1.210938,0.17187 2.441407,0.22656 3.660157,0.30859 0.609375,0.043 1.222656,0.0781 1.832031,0.10938 0.609375,0.0117 1.222656,0.0156 1.835938,0.0156 1.226562,-0.008 2.445312,-0.004 3.675781,-0.0898 1.222656,-0.0664 2.449221,-0.15625 3.671871,-0.26953 1.22657,-0.13672 2.44922,-0.30078 3.67188,-0.48438 1.22266,-0.16015 2.44531,-0.39844 3.66797,-0.64844 1.22265,-0.25 2.4414,-0.52734 3.65625,-0.82421 4.87109,-1.22657 9.70312,-2.87891 14.5039,-4.94141" id="path99"/><path fill-rule="nonzero" fill="#ffffff" fill-opacity="1" d="m 100.91406,107.37891 c -2.964841,1.77343 -6.050779,3.125 -9.152341,4.25781 -1.550781,0.57812 -3.121094,1.03516 -4.6875,1.49219 -1.566407,0.44531 -3.148438,0.76953 -4.726563,1.10156 -3.160156,0.62109 -6.34375,0.97266 -9.523437,1.125 -1.589844,0.0977 -3.1875,0.0625 -4.777344,0.0234 -1.59375,-0.0508 -3.183594,-0.11719 -4.777344,-0.29297 -6.363281,-0.63281 -12.707031,-2.1836 -18.957031,-4.56641 -3.121094,-1.17187 -6.222656,-2.65234 -9.296875,-4.22656 -3.070313,-1.66406 -6.109375,-3.50391 -9.113281,-5.55859 3.023437,1.58593 6.070312,3.13671 9.136718,4.5 3.066407,1.34375 6.15625,2.53906 9.265626,3.58593 3.109374,0.97266 6.238281,1.94141 9.371093,2.5586 1.570313,0.34375 3.144531,0.64843 4.71875,0.91797 1.574219,0.23437 3.152344,0.43359 4.730469,0.59375 1.582031,0.19531 3.15625,0.28125 4.738281,0.34765 1.582031,0.0703 3.164063,0.10156 4.746094,0.0586 1.582031,-0.0391 3.167969,-0.0781 4.746094,-0.21875 1.582031,-0.13282 3.164062,-0.30469 4.746093,-0.51563 3.152344,-0.46484 6.3125,-1.07031 9.445313,-1.94141 3.144531,-0.83984 6.269531,-1.90234 9.367185,-3.24218" id="path100"/><path fill-rule="nonzero" fill="#ffffff" fill-opacity="1" d="m 132.92578,97.136719 c -6.2539,4.039061 -12.66797,6.937501 -19.15625,8.898441 -6.48828,1.96093 -13.05078,2.93359 -19.601561,2.88281 -6.542969,-0.0781 -13.089844,-1.16016 -19.4375,-3.48828 -6.34375,-2.28516 -12.539063,-5.847659 -17.976563,-10.789065 5.894532,4.25 12.109375,7.246095 18.460938,9.183595 3.175781,0.96094 6.375,1.70312 9.601562,2.15625 3.21875,0.49219 6.453125,0.73828 9.695313,0.73828 3.234375,0.043 6.472661,-0.16797 9.707031,-0.58203 3.23438,-0.39063 6.46094,-1.03516 9.67188,-1.82813 6.42187,-1.63671 12.78125,-4.03515 19.03515,-7.171871" id="path101"/><path fill-rule="nonzero" fill="#ffffff" fill-opacity="1" d="m 117.03906,128.76172 c -0.91015,1.48828 -2.0625,2.86719 -3.27343,4.11328 -0.30079,0.3125 -0.60157,0.63281 -0.91016,0.94141 -0.31641,0.29296 -0.63672,0.58203 -0.95313,0.875 -0.63671,0.57812 -1.26953,1.16796 -1.9414,1.67968 -0.66406,0.52735 -1.32813,1.04688 -1.9961,1.5625 -0.68359,0.47657 -1.37109,0.94141 -2.05859,1.40235 -1.36328,0.96093 -2.79297,1.70312 -4.20312,2.49218 -5.687505,3.01954 -11.597661,4.86329 -17.527349,5.85157 -1.488281,0.24609 -2.976562,0.35937 -4.46875,0.49609 -0.742187,0.0586 -1.488281,0.11328 -2.230469,0.15625 -0.746093,0.0469 -1.488281,0.0898 -2.234374,0.0625 -1.492188,-0.0234 -2.984376,-0.0781 -4.472657,-0.16406 -1.488281,-0.0859 -2.976562,-0.19922 -4.464843,-0.45313 -2.96875,-0.46093 -5.933594,-1.01562 -8.878907,-1.86328 -2.945312,-0.88281 -5.871093,-1.89062 -8.777343,-3.125 2.925781,0.75391 5.855468,1.47656 8.789062,2.0586 1.472656,0.32812 2.941406,0.51171 4.410156,0.71484 1.472656,0.20312 2.945313,0.375 4.417969,0.51172 2.949219,0.27344 5.894531,0.29687 8.839844,0.25781 1.476562,-0.008 2.941406,-0.15625 4.410156,-0.27734 1.46875,-0.14453 2.941406,-0.27735 4.402344,-0.52344 2.921875,-0.5 5.851562,-1.06641 8.734375,-1.98438 0.722656,-0.21093 1.445312,-0.43359 2.167968,-0.66015 0.726563,-0.22266 1.433594,-0.51953 2.148438,-0.78906 0.714844,-0.27735 1.425781,-0.5625 2.140625,-0.85157 0.722656,-0.27343 1.425785,-0.60156 2.125005,-0.9414 1.40625,-0.6836 2.82421,-1.35547 4.19531,-2.17969 0.6914,-0.39844 1.38281,-0.80469 2.07422,-1.21484 0.67187,-0.44922 1.34375,-0.90625 2.01953,-1.3711 0.6875,-0.4414 1.33203,-0.95703 1.99219,-1.46484 0.32812,-0.25781 0.65625,-0.51563 0.98437,-0.77344 0.31641,-0.27344 0.63672,-0.55078 0.95313,-0.82812 0.3164,-0.28125 0.64453,-0.55469 0.94921,-0.85157 0.30469,-0.29687 0.60938,-0.59765 0.91797,-0.90234 0.60157,-0.60938 1.19141,-1.25391 1.71875,-1.95703" id="path102"/><g clip-path="url(#clip-26)" id="g103"><path fill-rule="nonzero" fill="#000000" fill-opacity="1" d="m 54.789062,237.20312 -2.679687,-1.12109 c 6.355469,-15.20312 20.167969,-27.38281 36.050781,-31.78125 4.253906,-1.17969 8.652344,-1.83594 12.902344,-2.47656 2.31641,-0.34766 4.70703,-0.70703 7.03125,-1.14063 14.19922,-2.67187 26.19922,-8.45312 34.69531,-16.71875 9.75391,-9.48828 14.81641,-22.80468 13.20703,-34.7539 -1.75,-13.02735 -12.07812,-24.27344 -24.01562,-26.16016 l 0.45312,-2.86719 c 13.3711,2.11329 24.49219,14.16016 26.4375,28.64063 1.73047,12.84375 -3.65625,27.10547 -14.05859,37.22265 -8.90625,8.66407 -21.41797,14.71094 -36.18359,17.48438 -2.375,0.44922 -4.79297,0.8125 -7.13282,1.16406 -4.167965,0.625 -8.480465,1.26953 -12.562496,2.40235 -15.042969,4.16406 -28.128906,15.69921 -34.144532,30.10546" id="path103"/></g></g><mask maskUnits="userSpaceOnUse" id="mask110"><g id="g112" transform="translate(-83,-104)"><g filter="url(#filter-remove-color)" id="g111"><rect x="-108.183" y="-38.869499" width="1298.196" height="466.43399" fill="#000000" fill-opacity="0.800003" id="rect110"/></g></g></mask></defs><use xlink:href="#source-159697" transform="translate(83,104)" id="use105" mask="url(#mask110)"/></svg>